<?xml version="1.0" encoding="UTF-8" standalone="no" ?>
<!DOCTYPE svg PUBLIC "-//W3C//DTD SVG 1.1//EN" "http://www.w3.org/Graphics/SVG/1.1/DTD/svg11.dtd">
<svg xmlns="http://www.w3.org/2000/svg" xmlns:xlink="http://www.w3.org/1999/xlink" version="1.1" width="1080" height="1080" viewBox="0 0 1080 1080" xml:space="preserve">
<desc>Created with Fabric.js 4.2.0</desc>
<defs>
</defs>
<rect x="0" y="0" width="100%" height="100%" fill="transparent"></rect>
<g transform="matrix(1 0 0 1 540 540)" id="36939326-1f1a-4404-87c7-f1851a4bd117"  >
<rect style="stroke: none; stroke-width: 1; stroke-dasharray: none; stroke-linecap: butt; stroke-dashoffset: 0; stroke-linejoin: miter; stroke-miterlimit: 4; fill: rgb(255,255,255); fill-rule: nonzero; opacity: 1;" vector-effect="non-scaling-stroke"  x="-540" y="-540" rx="0" ry="0" width="1080" height="1080" />
</g>
<g transform="matrix(1 0 0 1 540 540)" id="43c81e39-899d-495c-b59d-0d19209672d0"  >
</g>
<g transform="matrix(3.89 0 0 3.89 540 540)" id="Fill-14"  >
<path style="stroke: rgb(0,0,0); stroke-width: 0; stroke-dasharray: none; stroke-linecap: butt; stroke-dashoffset: 0; stroke-linejoin: miter; stroke-miterlimit: 4; fill: rgb(0,0,0); fill-rule: nonzero; opacity: 1;" vector-effect="non-scaling-stroke"  transform=" translate(-55.5, -15)" d="M 105.06233 14.2806261 L 110.999156 30 C 109.249227 29.7497422 107.500234 29.4366857 105.718437 29.1554972 L 102.374168 20.4686475 L 98.9371075 28.4375293 C 97.2499766 28.1563408 95.5928391 28.061674 93.9057081 27.8432843 L 99.9372012 14.0931671 L 94.4680851 -5.68434189e-14 L 99.5313525 -5.68434189e-14 L 102.593495 7.87421502 L 105.874965 -5.68434189e-14 L 110.999156 -5.68434189e-14 L 105.06233 14.2806261 Z M 90.4686475 -5.68434189e-14 L 85.8749649 -5.68434189e-14 L 85.8749649 27.2499766 C 87.3746368 27.3437061 88.9371075 27.4055675 90.4686475 27.5930265 L 90.4686475 -5.68434189e-14 Z M 81.9055207 26.93692 C 77.7186241 26.6557316 73.5307901 26.4064111 69.250164 26.3117443 L 69.250164 -5.68434189e-14 L 73.9366389 -5.68434189e-14 L 73.9366389 21.8745899 C 76.6248008 21.9373887 79.3120255 22.1557784 81.9055207 22.2804387 L 81.9055207 26.93692 Z M 64.2496954 10.6561065 L 64.2496954 15.3435186 L 57.8442216 15.3435186 L 57.8442216 25.9996251 L 53.2186709 25.9996251 L 53.2186709 -5.68434189e-14 L 66.3436123 -5.68434189e-14 L 66.3436123 4.68741213 L 57.8442216 4.68741213 L 57.8442216 10.6561065 L 64.2496954 10.6561065 Z M 45.3435186 4.68741213 L 45.3435186 26.2498828 C 43.7810479 26.2498828 42.1876465 26.2498828 40.6561065 26.3117443 L 40.6561065 4.68741213 L 35.8121661 4.68741213 L 35.8121661 -5.68434189e-14 L 50.2183897 -5.68434189e-14 L 50.2183897 4.68741213 L 45.3435186 4.68741213 Z M 30.749836 15.5928391 C 28.687787 15.5928391 26.2498828 15.5928391 24.4999531 15.6875059 L 24.4999531 22.6562939 C 27.2499766 22.4678976 30 22.2495079 32.7809542 22.1557784 L 32.7809542 26.6557316 L 19.812541 27.6876933 L 19.812541 -5.68434189e-14 L 32.7809542 -5.68434189e-14 L 32.7809542 4.68741213 L 24.4999531 4.68741213 L 24.4999531 10.9991564 C 26.3126816 10.9991564 29.0936358 10.9054269 30.749836 10.9054269 L 30.749836 15.5928391 Z M 4.78114163 12.9684132 L 4.78114163 29.3429562 C 3.09401069 29.5313525 1.59340144 29.7497422 0 30 L 0 -5.68434189e-14 L 4.4690224 -5.68434189e-14 L 10.562377 17.0315868 L 10.562377 -5.68434189e-14 L 15.2497891 -5.68434189e-14 L 15.2497891 28.061674 C 13.5935889 28.3437998 11.906458 28.4375293 10.1246602 28.6868498 L 4.78114163 12.9684132 Z" stroke-linecap="round" />
</g>
</svg>